<?xml version="1.0" encoding="UTF-8"?><svg id="Layer_2" xmlns="http://www.w3.org/2000/svg" xmlns:xlink="http://www.w3.org/1999/xlink" viewBox="0 0 139.19 177.07"><defs><style>.cls-1{fill:url(#linear-gradient-2);}.cls-2{fill:#1a0044;}.cls-3{fill:url(#linear-gradient);}</style><linearGradient id="linear-gradient" x1="74.77" y1="5.95" x2="74.77" y2="161.41" gradientUnits="userSpaceOnUse"><stop offset="0" stop-color="#39cfd1"/><stop offset="1" stop-color="#ed22db"/></linearGradient><linearGradient id="linear-gradient-2" x1="55.7" y1="161.41" x2="55.7" y2="98.24" gradientUnits="userSpaceOnUse"><stop offset="0" stop-color="#efc245"/><stop offset="1" stop-color="#d456e7"/></linearGradient></defs><g id="Layer_1-2"><g id="Fish"><path class="cls-2" d="M139.19,93.67c-.21-16.05-.13-32.1-.13-48.16,0-4.05-3.44-7.5-7.5-7.5h-11.51v-11.51c0-4.05-3.44-7.5-7.5-7.5h-30.52V7.5c0-4.05-3.44-7.5-7.5-7.5-9.66,0-19.32,0-28.98.03-4.06.01-7.49,3.42-7.5,7.5-.01,3.82-.02,7.64-.02,11.45-3.86,0-7.71-.01-11.57-.03-4.04-.02-7.52,3.45-7.5,7.5.08,16.02.05,32.05.05,48.07,0,4.05,3.44,7.5,7.5,7.5h11.51v11.51c0,.52.06,1.03.17,1.53-3.87.01-7.73.02-11.6.04-4.08.03-7.47,3.41-7.5,7.5-.03,3.81-.03,7.63-.04,11.44-3.84,0-7.68,0-11.52.01-4.06,0-7.49,3.43-7.5,7.5-.03,16-.02,32-.02,48.01,0,4.05,3.44,7.5,7.5,7.5h19.01c4.05,0,7.5-3.44,7.5-7.5v-2.51h2.51c.51,0,1.01-.06,1.5-.16v2.67c0,4.05,3.44,7.5,7.5,7.5h19.01c4.05,0,7.5-3.44,7.5-7.5v-2.51h2.51c4.05,0,7.5-3.44,7.5-7.5v-20.51h1.5c4.05,0,7.5-3.44,7.5-7.5v-2.51h2.51c.51,0,1.01-.06,1.5-.16v2.67c0,4.05,3.44,7.5,7.5,7.5h19.01c4.09,0,7.46-3.44,7.5-7.5,0-.83.02-1.65.03-2.48.83,0,1.65-.02,2.48-.03,4.05-.04,7.5-3.4,7.5-7.5v-19.01c0-1.6-.54-3.1-1.44-4.34.99-1.28,1.6-2.86,1.57-4.53Z"/><path id="Top" class="cls-3" d="M133.42,113.14c0-2.23.08-4.47,0-6.7-.11-3.2-2.54-5.18-5.62-5.2-2.49-.01-4.98,0-7.47,0h-3.65c-.96,0-1.29.1-1.9-.75-.5-.69-.41-1.49-.41-2.29v-3.75c0-2.32-.08-4.65,0-6.97.08-2.53,2.39-2.3,4.22-2.3h8.17c.75,0,1.51.04,2.25-.07,1.99-.28,3.69-1.75,4.23-3.7.47-1.73.18-3.83.18-5.59v-26.02c0-2.95-1.75-5.34-4.72-5.68-.13-.03-.26-.06-.42-.06h-10.74c-1.02,0-2.06.08-2.76-.86-.53-.71-.42-1.64-.42-2.48v-4.07c0-2.26.17-4.59-.01-6.84-.18-2.23-1.74-4.12-3.91-4.66-.79-.2-1.62-.15-2.42-.15h-29.07c-1.23,0-2.48-.41-2.68-1.85-.17-1.21,0-2.54,0-3.76,0,0,0,0,0,0,0-2.62.02-5.24,0-7.86-.01-1.76-.55-3.36-1.98-4.48-1.16-.91-2.5-1.11-3.92-1.11h-9.31c-1,0-2.09-.09-3.07.18-2.27.63-3.68,2.67-3.77,4.97-.11,2.69,0,5.39,0,8.08,0,.02,0,.03,0,.05,0,1.93.71,5.55-2.07,5.78-2.18.18-4.45,0-6.63,0-2,0-4.28-.3-6.26.11-1.97.41-3.57,2.01-3.97,3.97-.15.7-.11,1.42-.11,2.13v26.72c0,2.04-.29,4.31.99,6.05,1.69,2.3,4.22,2.13,6.74,2.13h8.07c.78,0,1.61-.1,2.3.35.91.59.96,1.52.96,2.48v7.84c0,2.33-.34,4.9,1.4,6.76,1.81,1.93,4.37,1.62,6.76,1.62h8c.94,0,1.85,0,2.48.86.51.68.42,1.53.42,2.32v8.05c0,1.85.46,4.67-2.16,4.83-1.85.11-3.74,0-5.6,0-8.36,0-16.78-.26-25.13,0-3.16.1-5.2,2.48-5.22,5.55-.02,2.52,0,5.03,0,7.55,0,1.66.64,5.01-1.34,5.81-.64.26-1.49.15-2.16.15h-3.91c-2.16,0-4.33-.08-6.48,0-3.19.12-5.15,2.57-5.17,5.64-.03,4.77,0,9.55,0,14.32v11.79c0,1.75-.29,3.87.18,5.59.54,1.95,2.23,3.42,4.23,3.7.75.11,1.5.07,2.25.07h8.17c2.62,0,5.29-.11,6.66-2.82.95-1.89.56-4.57.56-6.61,0-2.41-.06-4.84,0-7.25.07-2.49,2.18-2.38,4.03-2.38h8.19c.63,0,1.32-.08,1.96,0,1.3.17,1.88,1.27,1.88,2.46.01,2.51,0,5.02,0,7.52,0,2.1-.4,4.8.79,6.66,1.58,2.48,4.16,2.41,6.73,2.41h8.12c.82,0,1.68.05,2.48-.15,1.97-.49,3.48-2.1,3.84-4.1.31-1.75.09-3.69.09-5.45v-19.06c0-2.28,0-4.57,0-6.85,0-1.05.36-2.02,1.45-2.39.66-.22,1.52-.11,2.21-.11h8.17c2.62,0,5.29-.11,6.66-2.82.95-1.89.56-4.57.56-6.61,0-2.41-.08-4.84,0-7.25.08-2.47,2.14-2.38,3.98-2.38h8.22c1.77,0,3.76-.07,3.85,2.17.1,2.5,0,5.02,0,7.52,0,2.04-.38,4.66.56,6.55,1.34,2.72,4.05,2.82,6.66,2.82h8.17c.75,0,1.51.04,2.25-.07,2-.28,3.68-1.76,4.23-3.7.54-1.96.18-4.39.18-6.39ZM71.12,44.07h-9.68c-1.19,0-2.82.28-3.69-.71-.9-1.02-.54-3.02-.54-4.27v-5.14s.02-.09.02-.14v-2.56c0-.89-.1-1.79.54-2.52.66-.75,1.54-.71,2.45-.71h2.64s.01,0,.02,0h4.59s.02,0,.03,0c1.29,0,2.69-.17,3.97.02,1.51.23,1.8,1.55,1.8,2.8v9.96c0,.37.02.75,0,1.13-.06,1.2-.92,2.1-2.14,2.14Z"/><path id="Bottom" class="cls-1" d="M16.27,157.64c.54,1.95,2.23,3.42,4.23,3.7.75.11,1.5.07,2.25.07h8.17c2.62,0,5.29-.11,6.66-2.82.95-1.89.56-4.57.56-6.61,0-2.41-.06-4.84,0-7.25.07-2.49,2.18-2.38,4.03-2.38h8.19c.63,0,1.32-.08,1.96,0,1.3.17,1.88,1.27,1.88,2.46.01,2.51,0,5.02,0,7.52,0,2.1-.4,4.8.79,6.66,1.58,2.48,4.16,2.41,6.73,2.41h8.12c.82,0,1.68.05,2.48-.15,1.97-.49,3.48-2.1,3.84-4.1.31-1.75.09-3.69.09-5.45v-19.06c0-2.28,0-4.57,0-6.85,0-1.05.36-2.02,1.45-2.39.66-.22,1.52-.11,2.21-.11h8.17c2.62,0,5.29-.11,6.66-2.82.95-1.89.56-4.57.56-6.61,0-2.2-.02-5.88.03-8.08l-22.05-7.55c-.13,1.36-.28,2.87-2.19,3s-3.74,0-5.6,0c-8.36,0-16.78-.26-25.13,0-3.16.1-5.2,2.48-5.22,5.55-.02,2.52,0,5.03,0,7.55,0,1.66.64,5.01-1.34,5.81-.64.26-1.49.15-2.16.15h-3.91c-2.16,0-4.33-.08-6.48,0-3.19.12-5.15,2.57-5.17,5.64-.03,4.77,0,9.55,0,14.32v11.79c0,1.75-.29,3.87.18,5.59Z"/></g></g></svg>